<mxfile host="www.draw.io" modified="2019-10-29T11:56:14.043Z" agent="Mozilla/5.0 (Macintosh; Intel Mac OS X 10_13_6) AppleWebKit/537.36 (KHTML, like Gecko) Chrome/78.0.3904.70 Safari/537.36" etag="CGCeAJaU7yY2ERzC_9BX" version="12.1.8" type="github" pages="1">
  <diagram id="mVfMFWSFud1-0Lc9YPOU" name="Page-1">
    <mxGraphModel dx="932" dy="529" grid="1" gridSize="10" guides="1" tooltips="1" connect="1" arrows="1" fold="1" page="1" pageScale="1" pageWidth="827" pageHeight="1169" math="0" shadow="0">
      <root>
        <mxCell id="0"/>
        <mxCell id="1" parent="0"/>
        <mxCell id="nBpuaU2vABz03A8otljU-8" value="" style="endArrow=none;html=1;strokeWidth=2;strokeColor=#FF3333;" edge="1" parent="1">
          <mxGeometry width="50" height="50" relative="1" as="geometry">
            <mxPoint x="265" y="320" as="sourcePoint"/>
            <mxPoint x="315" y="270" as="targetPoint"/>
          </mxGeometry>
        </mxCell>
        <mxCell id="nBpuaU2vABz03A8otljU-9" value="" style="endArrow=none;html=1;strokeWidth=2;strokeColor=#FF3333;" edge="1" parent="1">
          <mxGeometry width="50" height="50" relative="1" as="geometry">
            <mxPoint x="265" y="270" as="sourcePoint"/>
            <mxPoint x="315" y="320" as="targetPoint"/>
          </mxGeometry>
        </mxCell>
        <mxCell id="nBpuaU2vABz03A8otljU-5" style="edgeStyle=orthogonalEdgeStyle;rounded=0;orthogonalLoop=1;jettySize=auto;html=1;exitX=0.5;exitY=1;exitDx=0;exitDy=0;entryX=0;entryY=0.5;entryDx=0;entryDy=0;strokeWidth=2;opacity=40;" edge="1" parent="1" source="nBpuaU2vABz03A8otljU-1" target="nBpuaU2vABz03A8otljU-3">
          <mxGeometry relative="1" as="geometry"/>
        </mxCell>
        <mxCell id="nBpuaU2vABz03A8otljU-7" style="edgeStyle=orthogonalEdgeStyle;rounded=0;orthogonalLoop=1;jettySize=auto;html=1;exitX=1;exitY=0.5;exitDx=0;exitDy=0;entryX=0;entryY=0.5;entryDx=0;entryDy=0;strokeWidth=2;" edge="1" parent="1" source="nBpuaU2vABz03A8otljU-1" target="nBpuaU2vABz03A8otljU-2">
          <mxGeometry relative="1" as="geometry"/>
        </mxCell>
        <mxCell id="nBpuaU2vABz03A8otljU-1" value="&lt;font style=&quot;font-size: 24px&quot;&gt;w&lt;/font&gt;" style="rounded=1;whiteSpace=wrap;html=1;fillColor=#d5e8d4;strokeColor=#82b366;" vertex="1" parent="1">
          <mxGeometry x="180" y="200" width="60" height="50" as="geometry"/>
        </mxCell>
        <mxCell id="nBpuaU2vABz03A8otljU-2" value="&lt;font style=&quot;font-size: 24px&quot;&gt;r&lt;/font&gt;" style="rounded=1;whiteSpace=wrap;html=1;fillColor=#ffe6cc;strokeColor=#d79b00;" vertex="1" parent="1">
          <mxGeometry x="336" y="200" width="60" height="50" as="geometry"/>
        </mxCell>
        <mxCell id="nBpuaU2vABz03A8otljU-6" style="edgeStyle=orthogonalEdgeStyle;rounded=0;orthogonalLoop=1;jettySize=auto;html=1;exitX=1;exitY=0.5;exitDx=0;exitDy=0;entryX=0.5;entryY=1;entryDx=0;entryDy=0;strokeWidth=2;opacity=40;" edge="1" parent="1" source="nBpuaU2vABz03A8otljU-3" target="nBpuaU2vABz03A8otljU-2">
          <mxGeometry relative="1" as="geometry"/>
        </mxCell>
        <mxCell id="nBpuaU2vABz03A8otljU-3" value="&lt;font style=&quot;font-size: 24px&quot;&gt;w&#39;&lt;/font&gt;" style="rounded=1;whiteSpace=wrap;html=1;fillColor=#d5e8d4;strokeColor=#82b366;opacity=40;" vertex="1" parent="1">
          <mxGeometry x="260" y="270" width="60" height="50" as="geometry"/>
        </mxCell>
      </root>
    </mxGraphModel>
  </diagram>
</mxfile>
